<svg xmlns="http://www.w3.org/2000/svg" xmlns:xlink="http://www.w3.org/1999/xlink" version="1.1" id="Layer_1" x="0px" y="0px" viewBox="-0.0298091 0 519.36 130" enable-background="new 0 0 519.3 130" xml:space="preserve"  width="100%" height="100%" preserveAspectRatio="xMidYMid meet"><rect id="svgEditorBackground" x="0" y="0" width="519.2999877929688" height="130" style="fill: none; stroke: none;"/>
<path fill="#00ccc6" d="M493.29998779296875,7.5l4.899993896484375,10c0.5,1,1.5,1.7000007629394531,2.600006103515625,1.8999996185302734l11,1.6000003814697266c2.79998779296875,0.39999961853027344,4,3.8999996185302734,1.9000244140625,5.899999618530273l-8,7.80000114440918c-0.79998779296875,0.7999992370605469,-1.20001220703125,1.9000015258789062,-1,3.0999984741210938l1.899993896484375,11c0.5,2.799999237060547,-2.5,5,-5,3.5999984741210938l-9.899993896484375,-5.200000762939453c-1,-0.5,-2.20001220703125,-0.5,-3.20001220703125,0l-9.899993896484375,5.200000762939453c-2.5,1.2999992370605469,-5.5,-0.7999992370605469,-5,-3.5999984741210938l1.899993896484375,-11c0.20001220703125,-1.0999984741210938,-0.20001220703125,-2.299999237060547,-1,-3.0999984741210938l-8,-7.799999237060547c-2.100006103515625,-2,-0.899993896484375,-5.5,1.899993896484375,-5.899999618530273l11,-1.6000003814697266c1.100006103515625,-0.20000076293945312,2.100006103515625,-0.8999996185302734,2.600006103515625,-1.8999996185302734l4.899993896484375,-10c1.399993896484375,-2.500001907348633,5.100006103515625,-2.500001907348633,6.399993896484375,-0.0000019073486328125Z"/>
<path fill-rule="evenodd" clip-rule="evenodd" fill="#048989" d="M393.70001220703125,62.20000076293945c3,-10.200000762939453,-3.100006103515625,-18.89999771118164,-11.79998779296875,-19.299999237060547c-3.5,-11.399999618530273,-22.20001220703125,-5,-28.5,-0.7000007629394531c-8.70001220703125,5.799999237060547,-14.79998779296875,15.60000228881836,-18.20001220703125,26.499996185302734c-1,3.9000015258789062,-1.70001220703125,7.400001525878906,-1.5,11.599998474121094c-0.100006103515625,0.1999969482421875,-0.20001220703125,0.40000152587890625,-0.29998779296875,0.5c0.100006103515625,0.40000152587890625,0.100006103515625,0.8000030517578125,0.100006103515625,1.1999969482421875c-0.399993896484375,4,-1.100006103515625,8.199996948242188,-0.70001220703125,12.300003051757812c1,-0.9000015258789062,1.899993896484375,-1.6999969482421875,2.70001220703125,-2.5999984741210938h0.29998779296875c4,9.900001525878906,17,17.099998474121094,31.100006103515625,11.099998474121094c11.899993896484375,-5.099998474121094,23.20001220703125,-17.29999542236328,25.399993896484375,-31.5c5.20001220703125,0.8000030517578125,10.600006103515625,-1.6999969482421875,14.100006103515625,-3.0999984741210938c0.70001220703125,-3.5,2.100006103515625,-6.799999237060547,3.20001220703125,-10.099998474121094c-4.4000244140625,2.5,-9.4000244140625,4.100002288818359,-15.9000244140625,4.100002288818359ZM365.6000061035156,85.80000305175781c-3.79998779296875,2,-9.5,1.5,-11.70001220703125,-1.5c-7.20001220703125,-9.400001525878906,3.29998779296875,-26.700000762939453,9,-30.799999237060547c2.29998779296875,-1.5999984741210938,4.899993896484375,-3.0999984741210938,7.600006103515625,-3h2.29998779296875c-0.600006103515625,1.4000015258789062,-1.20001220703125,2.799999237060547,-1.79998779296875,4.200000762939453c-3.100006103515625,9.300003051757812,2.79998779296875,13.199996948242188,6.29998779296875,13.800003051757812c-2.79998779296875,7.299995422363281,-5,13.799995422363281,-11.699981689453125,17.29999542236328Z" />
<path fill-rule="evenodd" clip-rule="evenodd" fill="#048989" d="M252.6999969482422,18.799999237060547c2.100006103515625,-0.8999996185302734,4.4000091552734375,-1.1000003814697266,6.5999908447265625,-0.6000003814697266c12.5,3.299999237060547,2.899993896484375,25.200002670288086,-10.399993896484375,21.80000114440918c-8,-2,-7.3000030517578125,-12.299999237060547,-2.600006103515625,-17.299999237060547c1.800018310546875,-1.9000015258789062,4.0000152587890625,-2.8000011444091797,6.4000091552734375,-3.9000015258789062Z"/>
<path fill-rule="evenodd" clip-rule="evenodd" d="M128.3000030517578,96.5c0.5,-4.8000030517578125,-0.6999969482421875,-8.800003051757812,-3.9000015258789062,-12.199996948242188c-0.1999969482421875,-0.1999969482421875,-0.3000030517578125,-0.40000152587890625,-0.5,-0.5999984741210938c-0.40000152587890625,0.3000030517578125,-0.40000152587890625,-0.6999969482421875,-0.8000030517578125,-0.5c-9.5,5.900001525878906,-35.400001525878906,15.900001525878906,-35.29999542236328,-5.900001525878906c14.199996948242188,4.599998474121094,26.5,3.5,34.5,-6.1999969482421875c6.8000030517578125,-8.200000762939453,6.100006103515625,-20.5,-2.1999969482421875,-25.599998474121094c-24.5,-15.100000381469727,-53.099998474121094,17.799999237060547,-45.19999694824219,44c5.599998474121094,18.599998474121094,27.599998474121094,19.599998474121094,43.599998474121094,12.900001525878906c3.4000015258789062,-1.1999969482421875,7.1999969482421875,-3.0999984741210938,10.499992370605469,-5.099998474121094c0,-0.00000762939453125,-0.6999969482421875,-0.8000106811523438,-0.6999969482421875,-0.8000106811523438ZM108.4000015258789,53.900001525878906c0.8000030517578125,0.09999847412109375,1.5,0.2999992370605469,2.0999984741210938,0.5c2.3000030517578125,0.7999992370605469,3.5999984741210938,3.299999237060547,3.1999969482421875,5.700000762939453c-1.5,9.000003814697266,-14.599998474121094,9.299999237060547,-21.900001525878906,5.899997711181641c2.8000030517578125,-6.599998474121094,9.099998474121094,-10.599998474121094,14.199996948242188,-11.900001525878906c0.8000106811523438,-0.2999992370605469,1.600006103515625,-0.2999992370605469,2.4000091552734375,-0.1999969482421875Z" fill="#048989"/>
<path fill-rule="evenodd" clip-rule="evenodd" fill="#048989" d="M258,79.30000305175781c-0.399993896484375,0.40000152587890625,-0.79998779296875,0.8000030517578125,-1.20001220703125,1.1999969482421875c-4.3000030517578125,4.1999969482421875,-10,9.599998474121094,-16.899993896484375,10.5c-4.1999969482421875,0.5,-7.5,-3.1999969482421875,-6.600006103515625,-7.3000030517578125c2,-9.199996948242188,13.199996948242188,-21.099998474121094,16.699996948242188,-31.900001525878906c1,-3.200000762939453,-0.8000030517578125,-6.799999237060547,-4,-7.900001525878906c-13.899993896484375,-4.799999237060547,-19.199996948242188,15.400001525878906,-25.300003051757812,26.099998474121094c-0.100006103515625,0.09999847412109375,-0.100006103515625,0.1999969482421875,-0.1999969482421875,0.40000152587890625c-4.3000030517578125,9.800003051757812,-5.600006103515625,13.5,-7.600006103515625,20.800003051757812c-0.3000030517578125,22,32.09999084472656,18.5,43.19999694824219,7.6999969482421875c1.500030517578125,-6.399993896484375,2.20001220703125,-12.899993896484375,1.9000244140625,-19.599990844726562Z"/>
<path fill-rule="evenodd" clip-rule="evenodd" fill="#048989" d="M341.8999938964844,77.9000015258789c-1.100006103515625,-0.8000030517578125,1.5,-7.6999969482421875,1,-9.099998474121094c-1.5,2,-16,15.099998474121094,-18,16.800003051757812c-2,1.5999984741210938,-14.899993896484375,10.400001525878906,-18.20001220703125,4.6999969482421875c-1.100006103515625,-4,3.399993896484375,-8.300003051757812,4.5,-11.599998474121094c3.100006103515625,-9.099998474121094,-4.600006103515625,-11.800003051757812,-13.20001220703125,-11.5l0,0c7.20001220703125,-4.099998474121094,14.399993896484375,-8.099998474121094,21.5,-12.200000762939453c4.70001220703125,-1.5,9.399993896484375,2,12.20001220703125,-1.9000015258789062c1.899993896484375,-2.700000762939453,4,-9.89999771118164,1.600006103515625,-13.799999237060547c-2.79998779296875,-4.599998474121094,-10.79998779296875,-3.9000015258789062,-16.100006103515625,-1.9000015258789062c-11.20001220703125,4.200000762939453,-19.79998779296875,12.799999237060547,-28.899993896484375,19.299999237060547c6.100006103515625,-13.299999237060547,12.20001220703125,-26.600000381469727,18.29998779296875,-39.79999923706055c0.79998779296875,-1.6000003814697266,1.899993896484375,-3.1999998092651367,2.70001220703125,-4.899999618530273c2.100006103515625,-4.199999809265137,-1.899993896484375,-1.1999998092651367,-6.399993896484375,-2.1999998092651367c-11.70001220703125,-2.5999999046325684,-15.70001220703125,5.90000057220459,-19.79998779296875,14.09999942779541c-9.399993896484375,18.700000762939453,-16.600006103515625,45.900001525878906,-30.399993896484375,60.70000457763672c0.5,7.1999969482421875,-0.899993896484375,9.199996948242188,-2.600006103515625,16.300003051757812c0.600006103515625,1.8000030517578125,1.399993896484375,3.4000015258789062,2.3000030517578125,4.6999969482421875c3.1999969482421875,4.6999969482421875,10.099990844726562,4.3000030517578125,12.800003051757812,-0.6999969482421875c3.5,-6.400001525878906,6,-13.699996948242188,9.29998779296875,-20.400001525878906c1.600006103515625,-3.4000015258789062,3.20001220703125,-6.900001525878906,4.79998779296875,-10.300003051757812h3.100006103515625c5.100006103515625,0,8.79998779296875,4.900001525878906,7.29998779296875,9.800003051757812c-1.70001220703125,5.400001525878906,-4.79998779296875,11.300003051757812,-2.29998779296875,17.20000457763672c1.70001220703125,3.9000015258789062,5.100006103515625,5.599998474121094,9.29998779296875,7.099998474121094c13.29998779296875,4.599998474121094,34.79998779296875,-11.099998474121094,42.70001220703125,-18.599998474121094c4.300018310546875,-3.8000106811523438,14.300018310546875,-13.600013732910156,2.5,-11.800010681152344Z"/>
<path fill-rule="evenodd" clip-rule="evenodd" fill="#048989" d="M488.20001220703125,64.69999694824219c-0.70001220703125,-1,-1,-1.0999984741210938,-1.70001220703125,-1.4000015258789062c-11.70001220703125,-2,-21.20001220703125,28.5,-34.899993896484375,25.099998474121094l-0.20001220703125,-0.1999969482421875c-5.70001220703125,-9.800003051757812,14.600006103515625,-26,11.100006103515625,-39.70000076293945c-4.79998779296875,-18.899999618530273,-27.79998779296875,-0.9000015258789062,-35,2.200000762939453c-0.20001220703125,0.20000076293945312,-0.399993896484375,0.40000152587890625,-0.600006103515625,0.5999984741210938c-2.100006103515625,-6.799999237060547,-8.899993896484375,-10,-13.5,-3.5c-4.100006103515625,5.799999237060547,-6.5,13.799999237060547,-10.70001220703125,19.599998474121094c-1.399993896484375,3.6999969482421875,-3.5,7.099998474121094,-5,10.599998474121094c-1.399993896484375,3.1999969482421875,-2.600006103515625,6,-3.70001220703125,9l-0.100006103515625,0.3000030517578125c-4.899993896484375,10,3.399993896484375,17.70000457763672,9.600006103515625,19.29999542236328c8,0.09999847412109375,7.899993896484375,-14.300003051757812,11.899993896484375,-21.5c6.5,-11.800003051757812,13.399993896484375,-21.099998474121094,26.29998779296875,-26.700000762939453c0.399993896484375,0.09999847412109375,0.899993896484375,0.20000076293945312,1.29998779296875,0.2999992370605469c0.100006103515625,0.09999847412109375,0.20001220703125,0.20000076293945312,0.29998779296875,0.2999992370605469c-2.20001220703125,11.999996185302734,-25.20001220703125,32.60000228881836,-5.79998779296875,44.70000076293945c17.29998779296875,10.699996948242188,38.5,-14.800003051757812,45.29998779296875,-23.5c2.800079345703125,-3.29998779296875,8.2000732421875,-8.699989318847656,5.40008544921875,-15.499992370605469Z"/>
<path fill-rule="evenodd" clip-rule="evenodd" fill="#048989" d="M168.10000610351562,83.5c-2.8000030517578125,2.5,-7.5,7.599998474121094,-14.399993896484375,7.1999969482421875c-1.399993896484375,-0.1999969482421875,-1.6999969482421875,-0.40000152587890625,-2.5,-1.0999984741210938c-3.399993896484375,-3.9000015258789062,-1,-8.099998474121094,0,-11.400001525878906c4.1999969482421875,-12.800003051757812,21.199996948242188,-47.70000076293945,29.199996948242188,-58.900001525878906c1.5,-2.1000003814697266,4,-4.5,5.6999969482421875,-7c3.1999969482421875,-4.800000190734863,-1.100006103515625,-10.899999618530273,-7.3000030517578125,-10.300000190734863c-8.199996948242188,0.7999999523162842,-15.899993896484375,5.599999904632568,-18.899993896484375,9c-1.5,1.6999998092651367,-1.399993896484375,1.5,-3,4.699999809265137l-0.899993896484375,2.1000003814697266c-4.3000030517578125,7.299999237060547,-18,43.5,-22.399993896484375,50.79999542236328c-5,8.300003051757812,-5.3000030517578125,9.099998474121094,-12.5,16.199996948242188c0,0.09999847412109375,0.09999847412109375,0.1999969482421875,0.09999847412109375,0.3000030517578125l1.6999969482421875,6.8000030517578125c0.1999969482421875,-0.09999847412109375,0.40000152587890625,-0.3000030517578125,0.6999969482421875,-0.40000152587890625c-0.09999847412109375,9.800003051757812,6.200004577636719,17.29999542236328,25.49999237060547,13.400001525878906c8.199996948242188,-1.6999969482421875,11.399993896484375,-6.599998474121094,17.699996948242188,-11.599998474121094c1.5999908447265625,-3.399993896484375,0.5,-6.299995422363281,1.3000030517578125,-9.799995422363281Z"/>
<path fill-rule="evenodd" clip-rule="evenodd" fill="#048989" d="M291.70001220703125,48.70000076293945c5.199981689453125,-11.700000762939453,10.79998779296875,-23.100000381469727,14.29998779296875,-28.700000762939453c1.399993896484375,-2.1000003814697266,3.600006103515625,-4.5,5.100006103515625,-7c2.899993896484375,-4.800000190734863,-1,-10.899999618530273,-6.5,-10.300000190734863c-7.399993896484375,0.7999999523162842,-14.29998779296875,5.59999942779541,-17,9c-1.399993896484375,1.6999998092651367,-2.399993896484375,3.40000057220459,-3.20001220703125,5.699999809265137l-0.600006103515625,1.6000003814697266c-1.79998779296875,4.399999618530273,-6.20001220703125,16.200000762939453,-10.600006103515625,27.700000762939453c6.000030517578125,1.2999992370605469,12.300018310546875,1.5999984741210938,18.500030517578125,2Z"/>
<path fill-rule="evenodd" clip-rule="evenodd" fill="#048989" d="M215.8000030517578,3.200000047683716c-5.3000030517578125,1.1000001430511475,-8.5,3.9000003337860107,-11.800003051757812,6.600000381469727c-8.600006103515625,6.800000190734863,-19.300003051757812,24.799999237060547,-21.5,35.599998474121094c-2.1999969482421875,0.09999847412109375,-10.300003051757812,0.20000076293945312,-13.300003051757812,2.5999984741210938c-1.100006103515625,0.9000015258789062,-1.399993896484375,2.0999984741210938,-1.3000030517578125,3.299999237060547c0.1999969482421875,2.200000762939453,1.8000030517578125,4,3.899993896484375,4.5c1.8000030517578125,0.40000152587890625,4,0.7000007629394531,5.8000030517578125,0.7999992370605469c-1.600006103515625,4.5,-3.1999969482421875,8.89999771118164,-4.8000030517578125,13.39999771118164c-3.600006103515625,10.099998474121094,-4.1999969482421875,12.300003051757812,-8.800003051757812,18.400001525878906c-2.8000030517578125,7.3000030517578125,-5.5,13.5,-7.600006103515625,20.300003051757812c-2,6.6999969482421875,-1.600006103515625,4,-2.3000030517578125,9.800003051757812c-0.899993896484375,7.3000030517578125,9.100006103515625,11.899993896484375,16.199996948242188,7.8000030517578125c7.5,-4.3000030517578125,4.600006103515625,-5,7.6999969482421875,-14.199996948242188c4.100006103515625,-12.400001525878906,5.1999969482421875,-18.300003051757812,9.699996948242188,-30.5c2.5,-8.300003051757812,4.600006103515625,-12.400001525878906,7.100006103515625,-20.700000762939453c0.1999969482421875,-0.40000152587890625,0.100006103515625,-0.40000152587890625,0.3000030517578125,-0.5c5.1999969482421875,2,7.5,2.700000762939453,9.600006103515625,6.600002288818359c1.6999969482421875,3.3000030517578125,6.600006103515625,4.3000030517578125,9.699996948242188,1.9000015258789062c4.3000030517578125,-3.4000015258789062,6.5,-10.400001525878906,3.600006103515625,-15.5c-2.399993896484375,-4.200000762939453,-11.800003051757812,-6.5,-18,-5.900001525878906c-1,-7.799999237060547,9.800003051757812,-26.600000381469727,21.199996948242188,-27.100000381469727c5,0.6000003814697266,4.5,4.80000114440918,3.6999969482421875,7.69999885559082c-0.100006103515625,0.5,-0.3000030517578125,1.2999992370605469,-0.8000030517578125,1.6000003814697266l-0.399993896484375,0.2999992370605469c-0.399993896484375,0.2999992370605469,-0.899993896484375,0.5,-1.5,0.2999992370605469c-1.100006103515625,-0.5,-1.6999969482421875,-1.1000003814697266,-2.100006103515625,-2.200000762939453c-0.3000030517578125,-0.7000007629394531,-0.899993896484375,-1.2999992370605469,-1.600006103515625,-1.3999996185302734c-11.399993896484375,-2.299999237060547,-12.199996948242188,25.5,4.899993896484375,18.700000762939453c16.900039672851562,-6.800006866455078,24.10003662109375,-48.000003814697266,-7.5999603271484375,-42.20000457763672Z"/>
<path fill-rule="evenodd" clip-rule="evenodd" fill="#048989" d="M182.6999969482422,83.4000015258789c0,0,5,18.79999542236328,31.600006103515625,3.4000015258789062l2.8000030517578125,7.5c0,0,-18.199996948242188,16.5,-41.19999694824219,6.3000030517578125"/>
<g>
	<path fill-rule="evenodd" clip-rule="evenodd" d="M64.80000305175781,94.9000015258789c-0.09999847412109375,-3.6999969482421875,-0.5999984741210938,-7.5,-0.8000030517578125,-9.199996948242188c-1.0999984741210938,-4.1999969482421875,-2,-5.6999969482421875,-4.5,-9.5c-5.099998474121094,-7.900001525878906,-22.599998474121094,-20.599998474121094,-13.799999237060547,-31.900001525878906c0.2999992370605469,-0.40000152587890625,1.0999984741210938,-1,1.5,-1.0999984741210938c10,-3.0999984741210938,13.39999771118164,4.700000762939453,19.89999771118164,9.200000762939453c2.5999984741210938,1.7999992370605469,6.099998474121094,1.5,8.5,-0.5999984741210938c2.0999984741210938,-1.7999992370605469,2.8000030517578125,-4.900001525878906,1.4000015258789062,-7.400001525878906c-11.099998474121094,-20.0000057220459,-42,-14.500005722045898,-49,-1.8000068664550781c-8.5,15.5,7.200000762939453,31.900001525878906,10.599998474121094,44c0.7000007629394531,1.4000015258789062,2,4.900001525878906,2.299999237060547,8.699996948242188c0,0,0,0,0,0c0,0,0.09999847412109375,0.40000152587890625,0,0.6999969482421875c0,0,0,0,0,0.09999847412109375c0,0.6999969482421875,0,1.4000015258789062,-0.09999847412109375,2.0999984741210938l0,0c-0.20000076293945312,4.3000030517578125,-0.5999984741210938,8.099998474121094,-3,11.800003051757812c-2.4000015258789062,3.4000015258789062,-10.100000381469727,6.5,-14.5,2.4000015258789062c-2.6000003814697266,-2.5999984741210938,-3.8999996185302734,-6.599998474121094,-1.8999996185302734,-9.699996948242188l1.2000007629394531,-1.5999984741210938c4.80000114440918,-4.400001525878906,11.899999618530273,-4.6999969482421875,16.30000114440918,-5.5c-0.20000076293945312,-3.9000015258789062,-1.7999992370605469,-7.5,-2.299999237060547,-8.5c-8.299999237060547,1,-27.600000381469727,-0.3000030517578125,-31.299999237060547,16.099998474121094c-1.1999998092651367,5.400001525878906,0.40000009536743164,9.900001525878906,3,12.800003051757812c15.89999771118164,18.300003051757812,58.19999694824219,5.900001525878906,56.5,-21.099998474121094c-0.100006103515625,0,0,0,0,0Z" style="" fill="#048989"/>
	<path fill-rule="evenodd" clip-rule="evenodd" fill="#048989" d="M66,86.19999694824219c0.3000030517578125,1.9000015258789062,0.6999969482421875,5.3000030517578125,0.6999969482421875,8.699996948242188c6.400001525878906,-0.09999847412109375,13.099998474121094,1.1999969482421875,19.5,0.8000030517578125c0.8000030517578125,-3.0999984741210938,1.5,-6.3000030517578125,2.0999984741210938,-9.400001525878906c-6.399993896484375,0.7000045776367188,-14.999992370605469,-0.5999984741210938,-22.29999542236328,-0.09999847412109375Z"/>
</g>
</svg>